<svg version="1.1" xmlns="http://www.w3.org/2000/svg" xmlns:xlink="http://www.w3.org/1999/xlink" width="613.705px" height="613.705px" viewBox="0,0,256,256"><g fill="#e2e8f0" fill-rule="nonzero" stroke="none" stroke-width="1" stroke-linecap="butt" stroke-linejoin="miter" stroke-miterlimit="10" stroke-dasharray="" stroke-dashoffset="0" font-family="none" font-weight="none" font-size="none" text-anchor="none" style="mix-blend-mode: normal"><g transform="translate(-0.00021,0) scale(0.41714,0.41714)"><g><g><path d="M594.389,274.302c-12.418,-12.462 -27.193,-18.836 -44.311,-18.836c-17.118,0 -31.555,6.087 -43.981,18.478c-12.418,12.39 -18.463,27.215 -18.463,44.332c0,17.117 5.959,31.656 18.127,43.975c12.332,12.462 27.193,18.478 44.317,18.478c17.124,0 31.893,-6.088 44.311,-18.478c12.419,-12.462 18.464,-26.857 18.464,-43.975c0,-17.117 -6.045,-31.584 -18.464,-43.974z"></path><path d="M474.542,438.453c-16.114,0 -29.543,5.371 -40.623,16.472c-11.079,11.029 -16.45,24.136 -16.45,39.893c0,15.827 5.285,29.292 16.45,40.68c10.994,11.101 24.509,16.4 40.623,16.4c15.777,0 28.869,-5.371 39.949,-16.4c11.416,-11.459 17.124,-24.853 17.124,-40.68c0,-15.757 -5.787,-28.791 -17.124,-39.893c-11.166,-11.029 -24.172,-16.472 -39.949,-16.472z"></path><path d="M482.936,213.855c18.463,0 34.577,-6.732 48.006,-20.125c13.429,-13.464 20.14,-29.579 20.14,-48.343c0,-19.123 -6.718,-35.237 -20.14,-48.701c-13.092,-13.106 -29.206,-19.767 -48.006,-19.767c-19.137,0 -35.251,6.661 -48.343,19.767c-13.429,13.464 -20.14,29.579 -20.14,48.701c0,18.764 6.718,34.878 20.14,48.343c13.428,13.393 29.543,20.125 48.343,20.125z"></path><path d="M297.284,511.289c-14.102,0 -26.27,4.942 -36.253,15.112c-9.819,9.955 -14.768,22.13 -14.768,36.597c0,14.109 4.956,26.284 14.768,35.882c9.991,9.883 22.159,14.825 36.253,14.825c14.438,0 26.435,-5.157 36.254,-14.825c9.99,-9.812 15.104,-21.772 15.104,-35.882c0,-14.467 -5.035,-26.856 -15.104,-36.955c-9.733,-9.74 -21.815,-14.754 -36.254,-14.754z"></path><path d="M297.284,0c-20.476,0 -37.937,7.09 -52.368,21.486c-14.438,14.467 -21.486,31.584 -21.486,52.067c0,20.483 7.047,38.245 21.486,52.711c14.438,14.396 31.892,21.486 52.368,21.486c20.476,0 37.937,-7.09 52.368,-21.486c14.438,-14.467 21.822,-32.229 21.822,-52.711c0,-20.482 -7.384,-37.6 -21.822,-52.067c-14.431,-14.396 -31.892,-21.486 -52.368,-21.486z"></path><path d="M120.363,179.263c9.067,0 17.447,-3.008 24.171,-9.74c13.436,-13.393 13.436,-35.237 0,-48.629c-6.725,-6.732 -15.104,-9.74 -24.171,-9.74c-8.73,0 -17.002,3.08 -23.835,9.74c-13.987,13.536 -13.987,35.093 0,48.629c6.833,6.661 15.112,9.74 23.835,9.74z"></path><path d="M120.363,445.472c-12.418,0 -22.997,4.87 -32.229,13.822c-8.895,8.522 -13.429,19.122 -13.429,31.513c0,12.461 4.362,23.204 13.429,32.229c9.067,9.096 19.81,13.751 32.229,13.751c12.419,0 23.162,-4.655 32.229,-13.751c9.067,-9.024 13.429,-19.768 13.429,-32.229c0,-12.391 -4.533,-22.99 -13.429,-31.513c-9.232,-8.952 -19.802,-13.822 -32.229,-13.822z"></path><path d="M68.669,290.058c-7.721,-7.735 -16.788,-11.745 -27.867,-11.745c-11.079,0 -20.812,4.01 -28.533,11.745c-7.721,7.735 -11.416,17.117 -11.416,28.217c0,11.029 3.695,20.77 11.416,28.505c7.721,7.734 17.454,11.459 28.533,11.459c11.079,0 20.139,-3.725 27.867,-11.459c7.72,-7.735 11.752,-17.476 11.752,-28.505c-0.007,-11.1 -4.032,-20.483 -11.752,-28.217z"></path></g></g><g font-family="Inter, apple-system, BlinkMacSystemFont, &quot;Helvetica Neue&quot;, &quot;Segoe UI&quot;, &quot;Fira Sans&quot;, Roboto, Oxygen, Ubuntu, &quot;Droid Sans&quot;, Arial, sans-serif" font-weight="400" font-size="16" text-anchor="start"></g><g font-family="Inter, apple-system, BlinkMacSystemFont, &quot;Helvetica Neue&quot;, &quot;Segoe UI&quot;, &quot;Fira Sans&quot;, Roboto, Oxygen, Ubuntu, &quot;Droid Sans&quot;, Arial, sans-serif" font-weight="400" font-size="16" text-anchor="start"></g><g font-family="Inter, apple-system, BlinkMacSystemFont, &quot;Helvetica Neue&quot;, &quot;Segoe UI&quot;, &quot;Fira Sans&quot;, Roboto, Oxygen, Ubuntu, &quot;Droid Sans&quot;, Arial, sans-serif" font-weight="400" font-size="16" text-anchor="start"></g><g font-family="Inter, apple-system, BlinkMacSystemFont, &quot;Helvetica Neue&quot;, &quot;Segoe UI&quot;, &quot;Fira Sans&quot;, Roboto, Oxygen, Ubuntu, &quot;Droid Sans&quot;, Arial, sans-serif" font-weight="400" font-size="16" text-anchor="start"></g><g font-family="Inter, apple-system, BlinkMacSystemFont, &quot;Helvetica Neue&quot;, &quot;Segoe UI&quot;, &quot;Fira Sans&quot;, Roboto, Oxygen, Ubuntu, &quot;Droid Sans&quot;, Arial, sans-serif" font-weight="400" font-size="16" text-anchor="start"></g><g font-family="Inter, apple-system, BlinkMacSystemFont, &quot;Helvetica Neue&quot;, &quot;Segoe UI&quot;, &quot;Fira Sans&quot;, Roboto, Oxygen, Ubuntu, &quot;Droid Sans&quot;, Arial, sans-serif" font-weight="400" font-size="16" text-anchor="start"></g><g font-family="Inter, apple-system, BlinkMacSystemFont, &quot;Helvetica Neue&quot;, &quot;Segoe UI&quot;, &quot;Fira Sans&quot;, Roboto, Oxygen, Ubuntu, &quot;Droid Sans&quot;, Arial, sans-serif" font-weight="400" font-size="16" text-anchor="start"></g><g font-family="Inter, apple-system, BlinkMacSystemFont, &quot;Helvetica Neue&quot;, &quot;Segoe UI&quot;, &quot;Fira Sans&quot;, Roboto, Oxygen, Ubuntu, &quot;Droid Sans&quot;, Arial, sans-serif" font-weight="400" font-size="16" text-anchor="start"></g><g font-family="Inter, apple-system, BlinkMacSystemFont, &quot;Helvetica Neue&quot;, &quot;Segoe UI&quot;, &quot;Fira Sans&quot;, Roboto, Oxygen, Ubuntu, &quot;Droid Sans&quot;, Arial, sans-serif" font-weight="400" font-size="16" text-anchor="start"></g><g font-family="Inter, apple-system, BlinkMacSystemFont, &quot;Helvetica Neue&quot;, &quot;Segoe UI&quot;, &quot;Fira Sans&quot;, Roboto, Oxygen, Ubuntu, &quot;Droid Sans&quot;, Arial, sans-serif" font-weight="400" font-size="16" text-anchor="start"></g><g font-family="Inter, apple-system, BlinkMacSystemFont, &quot;Helvetica Neue&quot;, &quot;Segoe UI&quot;, &quot;Fira Sans&quot;, Roboto, Oxygen, Ubuntu, &quot;Droid Sans&quot;, Arial, sans-serif" font-weight="400" font-size="16" text-anchor="start"></g><g font-family="Inter, apple-system, BlinkMacSystemFont, &quot;Helvetica Neue&quot;, &quot;Segoe UI&quot;, &quot;Fira Sans&quot;, Roboto, Oxygen, Ubuntu, &quot;Droid Sans&quot;, Arial, sans-serif" font-weight="400" font-size="16" text-anchor="start"></g><g font-family="Inter, apple-system, BlinkMacSystemFont, &quot;Helvetica Neue&quot;, &quot;Segoe UI&quot;, &quot;Fira Sans&quot;, Roboto, Oxygen, Ubuntu, &quot;Droid Sans&quot;, Arial, sans-serif" font-weight="400" font-size="16" text-anchor="start"></g><g font-family="Inter, apple-system, BlinkMacSystemFont, &quot;Helvetica Neue&quot;, &quot;Segoe UI&quot;, &quot;Fira Sans&quot;, Roboto, Oxygen, Ubuntu, &quot;Droid Sans&quot;, Arial, sans-serif" font-weight="400" font-size="16" text-anchor="start"></g><g font-family="Inter, apple-system, BlinkMacSystemFont, &quot;Helvetica Neue&quot;, &quot;Segoe UI&quot;, &quot;Fira Sans&quot;, Roboto, Oxygen, Ubuntu, &quot;Droid Sans&quot;, Arial, sans-serif" font-weight="400" font-size="16" text-anchor="start"></g></g></g></svg>